<?xml version="1.0" encoding="UTF-8"?>
<svg width="209px" height="258px" viewBox="0 0 209 258" version="1.1" xmlns="http://www.w3.org/2000/svg" xmlns:xlink="http://www.w3.org/1999/xlink">
    <!-- Generator: Sketch 47.1 (45422) - http://www.bohemiancoding.com/sketch -->
    <title>ralph</title>
    <desc>Created with Sketch.</desc>
    <defs>
        <polygon id="path-1" points="208.04244 129.321314 208.04244 257.958939 0 257.958939 0 129.321314 0 0.683688418 208.04244 0.683688418"></polygon>
    </defs>
    <g id="Page-1" stroke="none" stroke-width="1" fill="none" fill-rule="evenodd">
        <g id="ralph">
            <mask id="mask-2" fill="white">
                <use xlink:href="#path-1"></use>
            </mask>
            <g id="Clip-2"></g>
            <path d="M104.02122,247.050398 C52.7011194,247.050398 10.9496021,205.298196 10.9496021,153.97878 C10.9496021,102.659363 52.7011194,60.9078462 104.02122,60.9078462 C155.341321,60.9078462 197.092838,102.659363 197.092838,153.97878 C197.092838,205.298196 155.341321,247.050398 104.02122,247.050398 Z M137.337438,55.428939 C144.079655,53.1521061 150.590562,50.18887 156.753135,46.5542865 C172.194812,37.4462706 185.105077,24.4265093 194.089225,8.90202653 C195.603692,6.28507162 194.709931,2.93586207 192.092976,1.42071088 C189.475337,-0.0937559682 186.126127,0.800689655 184.612345,3.41696021 C167.999061,32.1247639 137.118446,49.958244 104.02122,49.958244 C70.9239947,49.958244 40.0433793,32.1247639 23.4300955,3.41696021 C21.9149443,0.800005305 18.5657347,-0.093071618 15.9487798,1.42071088 C13.3318249,2.93586207 12.4380637,6.28507162 13.9525305,8.90202653 C22.9373634,24.4265093 35.8476286,37.4462706 51.289305,46.5542865 C57.4511936,50.18887 63.9627851,53.1521061 70.7043183,55.428939 C29.6371512,69.3499894 0,108.268297 0,153.97878 C0,211.336902 46.6637825,258 104.02122,258 C161.378658,258 208.04244,211.336902 208.04244,153.97878 C208.04244,108.268297 178.405289,69.3499894 137.337438,55.428939 L137.337438,55.428939 Z" id="Fill-1" fill="#0A0B09" mask="url(#mask-2)"></path>
        </g>
    </g>
</svg>